<?xml version="1.0" encoding="utf-8"?>
<!-- Generator: Adobe Illustrator 19.1.0, SVG Export Plug-In . SVG Version: 6.00 Build 0)  -->
<svg version="1.1" id="Layer_1" xmlns="http://www.w3.org/2000/svg" xmlns:xlink="http://www.w3.org/1999/xlink" x="0px" y="0px"
	 viewBox="0 0 70 70" style="enable-background:new 0 0 70 70;" xml:space="preserve">
<style type="text/css">
	.st0{fill:#010101;}
</style>
<g>
	<path class="st0" d="M46.7,35.9c0,6.4-5.2,11.6-11.7,11.6c-6.4,0-11.7-5.2-11.7-11.6c0-1.2,0.2-2.4,0.6-3.5h-3.2v16.1
		c0,1.1,0.9,1.9,1.9,1.9h24.9c1.1,0,1.9-0.8,1.9-1.9V32.4h-3.4C46.5,33.5,46.7,34.6,46.7,35.9z"/>
	<path class="st0" d="M35,43.5c4.2,0,7.7-3.4,7.7-7.6c0-1.3-0.3-2.4-0.9-3.5c-1.3-2.4-3.9-4.1-6.8-4.1c-3,0-5.5,1.7-6.8,4.1
		c-0.5,1.1-0.9,2.2-0.9,3.5C27.3,40,30.8,43.5,35,43.5z"/>
	<path class="st0" d="M47.5,21.4H44c-0.8,0.3-1.3,1-1.3,1.8v3.2c0,1.1,0.9,1.9,1.9,1.9h2.9c1.1,0,1.9-0.8,1.9-1.9v-3.1
		C49.5,22.2,48.6,21.4,47.5,21.4z"/>
	<path class="st0" d="M35,0.9c-19.3,0-35,15.7-35,35s15.7,35,35,35c19.3,0,35-15.7,35-35S54.3,0.9,35,0.9z M53.7,49.9
		c0,2.6-2.1,4.7-4.7,4.7H21c-2.6,0-4.7-2.1-4.7-4.7v-28c0-2.6,2.1-4.7,4.7-4.7H49c2.6,0,4.7,2.1,4.7,4.7V49.9z"/>
</g>
</svg>
