<?xml version="1.0" encoding="utf-8"?>
<!-- Generator: Adobe Illustrator 19.1.0, SVG Export Plug-In . SVG Version: 6.00 Build 0)  -->
<svg version="1.1" id="Layer_1" xmlns="http://www.w3.org/2000/svg" xmlns:xlink="http://www.w3.org/1999/xlink" x="0px" y="0px"
	 viewBox="0 0 70 70" style="enable-background:new 0 0 70 70;" xml:space="preserve">
<style type="text/css">
	.st0{fill:#010101;}
</style>
<g>
	<path class="st0" d="M32.6,20.2c2,1.3,2.9,3.1,2.1,5.4c-0.6,1.7-2.2,2.8-4,2.8c-2.6-0.1-4-1.6-4.5-4.2c-3.3,4.2-3,10.1,0.6,13.9
		c3.8,4,10.1,4.8,14.6,1.6c4.5-3.2,6-9,3.4-14C42.5,21.2,37.1,18.7,32.6,20.2z"/>
	<path class="st0" d="M35,0.9c-19.3,0-35,15.7-35,35s15.7,35,35,35c19.3,0,35-15.7,35-35S54.3,0.9,35,0.9z M51.7,38.6
		c-2.9,7.2-7.3,13.4-13.2,18.5c-2.7,2.4-3.7,2.4-6.5,0.1c-4.3-3.4-7.6-7.7-10.5-12.3c-1.9-3.2-3.7-6.5-4.3-10.1
		c-1.2-7.5,1.3-13.7,7.2-18.4c3.1-2.4,6.9-3.7,10.8-3.7c7.2,0,14,4.9,16.6,12.1C53.5,29.5,53.5,34,51.7,38.6z"/>
</g>
</svg>
