<?xml version="1.0" encoding="utf-8"?>
<!-- Generator: Adobe Illustrator 19.1.0, SVG Export Plug-In . SVG Version: 6.00 Build 0)  -->
<svg version="1.1" id="Layer_1" xmlns="http://www.w3.org/2000/svg" xmlns:xlink="http://www.w3.org/1999/xlink" x="0px" y="0px"
	 viewBox="0 0 70 70" style="enable-background:new 0 0 70 70;" xml:space="preserve">
<style type="text/css">
	.st0{fill:#010101;}
</style>
<path class="st0" d="M35,0.9c-19.3,0-35,15.7-35,35s15.7,35,35,35c19.3,0,35-15.7,35-35S54.3,0.9,35,0.9z M54.8,28.8
	c0,0.4,0,0.8,0,1.2c0,12.4-9.5,26.8-26.8,26.8c-5.3,0-10.3-1.6-14.4-4.2c0.7,0.1,1.5,0.1,2.2,0.1c4.4,0,8.5-1.5,11.7-4
	c-4.1-0.1-7.6-2.8-8.8-6.5c0.6,0.1,1.2,0.2,1.8,0.2c0.9,0,1.7-0.1,2.5-0.3c-4.3-0.9-7.5-4.7-7.5-9.2c0,0,0-0.1,0-0.1
	c1.3,0.7,2.7,1.1,4.3,1.2c-2.5-1.7-4.2-4.6-4.2-7.8c0-1.7,0.5-3.3,1.3-4.7c4.6,5.7,11.6,9.4,19.4,9.8C36.1,30.4,36,29.7,36,29
	c0-5.2,4.2-9.4,9.4-9.4c2.7,0,5.2,1.1,6.9,3c2.1-0.4,4.2-1.2,6-2.3c-0.7,2.2-2.2,4-4.1,5.2c1.9-0.2,3.7-0.7,5.4-1.5
	C58.2,25.8,56.6,27.5,54.8,28.8z"/>
</svg>
