<?xml version="1.0" encoding="utf-8"?>
<!-- Generator: Adobe Illustrator 19.1.0, SVG Export Plug-In . SVG Version: 6.00 Build 0)  -->
<svg version="1.2" baseProfile="tiny" id="Layer_1" xmlns="http://www.w3.org/2000/svg" xmlns:xlink="http://www.w3.org/1999/xlink"
	 x="0px" y="0px" viewBox="0 0 61.4 58.1" xml:space="preserve">
<g>
	<path fill="#010101" d="M61.4,10.3c-8.6,0.6-20.6,9.4-29.2,28.2c-1,2.2-1.4,3.5-2.8,4.5c-2.2,1.6-4,1.2-4.8-1
		c-2-5.5-1.1-12,0.9-16.9c-1.1,0.8-2.2,1.4-2.9,1.6c-1,0.3-2-0.6-2.5-1.7c1.4-0.3,3.8-1.1,6-2.8c0.7-0.5,1.1-0.7,2.2-0.7
		c2.1,0,2.3,1.1,1.3,3c-2.2,3.9-3.2,8.9-2.4,13.2c0.3,1.5,0.9,2.1,1.6,1.7c0.7-0.4,1.2-1.7,1.6-2.6C37.8,18.3,49.9,6.8,57.9,6.6
		C59.6,6.5,61,7.5,61.4,10.3z"/>
	<path fill="#010101" d="M22.7,46.7c-7.9-4-11.2-11.2-10.5-18.9c0.1-0.5,0.1-1.1,0.2-1.7c0.1-0.5,0.2-1.1,0.4-1.6
		c0.2-0.5,0.4-1.1,0.5-1.6c0.2-0.5,0.5-1,0.7-1.6c3.4-7.2,10.9-11,18.9-10.9c10.3,0.1,18.6,8.4,19.7,15.7c0.1,0.7,1.4,3,1.4,2.3
		c-0.2-6.1-2.6-11-6-14.4c-4.7-4.7-10.9-6.2-15.6-6.4l-0.8,0c-0.3,0-0.5,0-0.8,0l-1.6,0.1c-0.5,0.1-1,0.2-1.6,0.2l-0.8,0.1l-0.8,0.2
		c-0.5,0.1-1,0.3-1.5,0.4c-1,0.4-2,0.7-3,1.2c-1,0.4-1.9,1-2.8,1.6c-0.4,0.3-0.9,0.6-1.3,0.9c-0.2,0.2-0.4,0.3-0.6,0.5l-0.6,0.5
		c-0.3,0.3-0.6,0.6-1.1,1c-0.4,0.5-0.9,1-1.4,1.6c-0.2,0.3-0.5,0.7-0.8,1.1c-0.1,0.2-0.3,0.4-0.4,0.6c-0.1,0.2-0.3,0.4-0.4,0.6
		c-0.3,0.4-0.5,0.9-0.8,1.4c-0.2,0.5-0.5,1-0.7,1.5c-0.9,2.1-1.6,4.7-1.8,7.4c-0.2,2.7,0.1,5.7,1,8.5c0.9,2.8,2.3,5.5,4.2,7.7
		c1.8,2.2,4.1,4,6.3,5.3c2.3,1.3,4.5,2.1,6.5,2.5c14.4,2.8,24.5-7,26.3-16.2c0.8-3.9-0.9-5.7-2.5-6.3C49.8,43,36.6,53.5,22.7,46.7z"
		/>
</g>
</svg>
