<?xml version="1.0" encoding="utf-8"?>
<!-- Generator: Adobe Illustrator 19.1.0, SVG Export Plug-In . SVG Version: 6.00 Build 0)  -->
<svg version="1.2" baseProfile="tiny" id="Layer_1" xmlns="http://www.w3.org/2000/svg" xmlns:xlink="http://www.w3.org/1999/xlink"
	 x="0px" y="0px" viewBox="0 0 595.9 194.6" xml:space="preserve">
<g>
	<path fill="#010101" d="M575.6,54.9c-20.2,0-47.1,27.5-66.1,61.8c1.7-10.7-1.4-20.8-13.7-20.8c-10.7,0-21.4,10.1-30.7,25.1
		c-1.3-6.6-6.2-11-13.4-11c-18.4,0-26.7,29.9-45.5,36c-5.8,1.9-9.4,0.7-11.4-1.7c18.1-12.1,27.8-25,27.8-33.4c0-4.9-2.9-7.9-8.6-7.9
		c-13.6,0-33.5,18.9-34.4,40.9c-4.3,2.9-9.3,6.2-13.1,6.2c-3.8,0-6.8-1.8-8.4-7.7c24.9-28.6,41.4-65.5,41.4-82.6
		c0-5.4-3.4-8.6-6.5-8.6c-18.7,0-49.7,55-49.7,92.8c0,0.1,0,0.2,0,0.3c-10.4,10.8-20.8,11.2-19.1-7.4c1.2-12.4,4.7-26.2,9.9-40.4
		c0.9,0,1.7,0,2.6,0c6.9,0,12.2-9.6,11.4-15.2c-2.7-0.1-5.3-0.1-7.9,0c5.3-12.1,11.7-24.3,18.7-36c6.8-11.3,8.9-26.5-11.6-21.4
		c-7.2,1.8-14.1,5-24.2,11.6c-25.7,16.7-57.2,46.8-78.3,81.5c-13.9,7.4-26,13.7-30,13.7c-4.2,0-7.2-2-9-4.8
		c20.6-13.4,29-25.7,29-33.2c0-4.9-3.1-7.4-8.7-7.4c-14.4,0-35.9,20.1-37.2,40.8c-8,4.7-15.1,8.3-20.6,8.3c-10,0-12.4-6.3-12.4-12.5
		c0-10,7.1-22.7,13.8-23.6c0.5-0.1,1-0.1,1.5-0.1c4.4,0,3.5,6.9,1,13.6c9,0,15.8-4.4,15.8-13.1c0-5.2-4.6-8.7-11.6-8.7
		c-15.4,0-20.9,13.3-39.9,13.3c-7.4,0-12.8-4.8-9.7-13.9c-8.8,0-14.1,6.3-14.1,11c0,6.4,4.8,11.3,13.8,11.9
		c-0.7,12.3-11.2,24.6-19.6,25.3c-4.5,0.4-7.9-4.3-7.9-10.1c0-5.9,2.8-13.2,9.6-17.7c-2.3-4.1-4-5.5-8.3-2.8
		c-10.9,6.9-16.2,18.2-16.2,28c0,11,7.2,20.1,20,19.1c16.8-1.4,30.5-22.1,30.5-41.1c0-0.4,0-0.8,0-1.2c5.7-0.9,10.8-2.9,15.4-5.1
		c-5.6,7.1-9,16.3-9,24c0,12.6,6.7,18.5,17.6,18.5c10.2,0,21.9-8,31.1-15.1c2.1,6.8,7.8,10.8,15,10.8c7.4,0,14.5-2.9,21.2-6.6
		c3.7-2.1,7.3-4.4,10.7-6.7c-4.6,9.2-8.4,18.6-11.1,28.1c-4.7,16.9,2.8,25,16.1,25.6c0.4-24.3,7.9-47.1,19.6-67.7
		c1.7-0.9,3.1-1.7,3.9-2.1c7.9-4.7,16.5-9,26.7-12.3c7.8-2.6,16.6-4.5,26.8-5.6c-5.8,16.6-10.7,35.2-11.7,52.9
		c-0.6,10.1,2.7,18.9,11.2,18.9c6,0,14.6-4.5,26.6-15.9c2.2,6.7,6.7,12.2,13.5,12.2c8,0,17.3-8.1,22.2-12.8
		c1.9,6.4,6.5,9.6,13.8,9.6c22.5,0,42.1-38.1,50.4-38.1c3.1,0,3.9,1.5,3.9,5.5c0,7.6-5.4,21,3.1,21c11.6,0,22.5-37.2,34.3-37.2
		c4.7,0,6.6,2.2,6.6,7.2c0,15.1-8.2,32.8,2,32.8c4.3,0,7.3-2.6,11.8-11.3c24.4-47.1,55.7-72.2,83.3-74.3
		C587.1,57.9,580.3,54.9,575.6,54.9z M204,118.3c0.4-7.2,3.6-13.5,6.9-17.3c8.7-10.2,17.9-5.5,3.6,8.8
		C212,112.3,208.5,115.1,204,118.3z M297.8,90.3c-5.2,2-15.8,7.1-27.8,13.4c10-14.4,21.9-27.6,34.6-39.2
		c20.4-18.7,30.1-23.7,34.5-23.9c4.4-0.2,4.6,1.5-0.2,10.7c-3.6,6.9-9.2,18.3-14.8,31.9C314.6,84.7,305.8,87.3,297.8,90.3z
		 M381.5,68c5.3-5.3,8.9-4.5,7.4,2.7c-3.5,17.1-16.3,39.8-32,60.6c0-0.2,0-0.3,0-0.5C356.8,112.3,372.1,77.3,381.5,68z M401.6,116.9
		c8.4-8.4,13.4-1,1.7,10.7c-2.6,2.6-6.1,5.4-10.4,8.4C393.6,128.1,397.7,120.8,401.6,116.9z"/>
	<path fill="#010101" d="M217.7,72.5c4.8-3.9,10.1-7.9,17.4-11.6c1.9,5.2,5.9,11,7,12.2c2.7,2.8,8.4,3.9,15.4-1
		c-5.9-4.8-9.2-11.4-11-16.4c-0.7-2-2.7-2.6-7.1-2.6c-2.6,0-4.9,0.8-6.6,1.6c-6.8,3.2-18.5,10.6-29.9,19.4c2,2.3,4.8,3.4,7.2,3.4
		C212.4,77.4,213.1,76.3,217.7,72.5z"/>
	<path fill="#010101" d="M408.1,94.3c14.1,0,31.7-4.3,40.7-9.5c5.5-3.2,9.3-7.7,0.4-15.4C434.9,80.6,420.8,85.1,404,86
		C402.9,91.1,403.1,94.3,408.1,94.3z"/>
	<path fill="#010101" d="M187.5,23.1c-1.6-12.1-7.7-16.5-15.3-16.2C137.4,7.9,84.8,57.9,52.9,138.1c-1.6,4.1-3.9,9.8-6.8,11.3
		c-3.3,1.7-5.8-1-7.1-7.6c-3.6-18.7,0.9-40.6,10.3-57.4c4.5-8,3.5-12.8-5.5-13c-4.8-0.1-6.6,0.7-9.4,2.9c-9.8,7.3-20.3,11-26.2,12.2
		c2.3,5.2,6.5,8.8,10.9,7.6c2.9-0.8,7.7-3.5,12.7-6.8c-8.9,21-12.4,49.4-4,73.3c3.4,9.7,11.3,11.4,20.8,4.4
		c5.8-4.3,7.7-9.8,12.1-19.4C97.7,63.9,150.1,25.6,187.5,23.1z"/>
</g>
</svg>
